<svg width="115" height="115" viewBox="0 0 115 115" fill="none" xmlns="http://www.w3.org/2000/svg">
<path d="M34.1467 91.4352L39.2895 20.1735L98.4326 60.2581L34.1467 91.4352Z" fill="#FF4343"/>
<path d="M52.875 65.7275V63.365L59.805 57.1887C60.345 56.7087 60.72 56.255 60.93 55.8275C61.14 55.4 61.245 54.9875 61.245 54.59C61.245 54.05 61.1288 53.57 60.8963 53.15C60.6638 52.7225 60.3413 52.385 59.9288 52.1375C59.5238 51.89 59.055 51.7662 58.5225 51.7662C57.96 51.7662 57.4613 51.8975 57.0263 52.16C56.5988 52.415 56.265 52.7562 56.025 53.1837C55.785 53.6112 55.6725 54.0725 55.6875 54.5675H52.8975C52.8975 53.4875 53.1375 52.5462 53.6175 51.7437C54.105 50.9412 54.7725 50.3187 55.62 49.8762C56.475 49.4337 57.4613 49.2125 58.5788 49.2125C59.6138 49.2125 60.5438 49.445 61.3688 49.91C62.1938 50.3675 62.8425 51.005 63.315 51.8225C63.7875 52.6325 64.0238 53.5662 64.0238 54.6237C64.0238 55.3962 63.9188 56.045 63.7088 56.57C63.4988 57.095 63.1838 57.5787 62.7638 58.0212C62.3513 58.4637 61.8375 58.955 61.2225 59.495L56.3063 63.8487L56.0588 63.1737H64.0238V65.7275H52.875Z" fill="white"/>
</svg>
