<svg width="79" height="70" viewBox="0 0 79 70" fill="none" xmlns="http://www.w3.org/2000/svg">
<path d="M44.0658 15.8827L9.51412 69.5431L78.957 69.5431L44.0658 15.8827Z" fill="#FF4343"/>
<g clip-path="url(#clip0_1270_1450)">
<path d="M31.0291 57.574C45.2849 57.574 56.8414 46.0174 56.8414 31.7617C56.8414 17.5059 45.2849 5.94934 31.0291 5.94934C16.7734 5.94934 5.2168 17.5059 5.2168 31.7617C5.2168 46.0174 16.7734 57.574 31.0291 57.574Z" stroke="white" stroke-width="1.46367" stroke-miterlimit="10"/>
<path d="M41.067 21.9257L31.025 19.9998L20.9831 21.9257C20.9831 37.1958 20.5709 35.4073 28.5495 43.5233H33.7776C41.7541 35.1324 41.067 37.4706 41.067 21.9257Z" stroke="white" stroke-width="1.46367" stroke-miterlimit="10"/>
<path d="M29.516 36.4895C29.1038 36.4895 28.6915 36.3521 28.2772 35.9398L25.3893 33.052C24.7023 32.3649 24.7023 31.2635 25.3893 30.5742C26.0764 29.8872 27.1779 29.8872 27.8649 30.5742L29.516 32.2254L34.1924 27.549C34.8795 26.8619 35.9809 26.8619 36.668 27.549C37.3551 28.2361 37.3551 29.3375 36.668 30.0267L30.7528 35.942C30.4801 36.2146 29.9283 36.4895 29.516 36.4895Z" fill="white"/>
</g>
<defs>
<clipPath id="clip0_1270_1450">
<rect width="62.0595" height="62.0595" fill="white" transform="translate(0 0.731812)"/>
</clipPath>
</defs>
</svg>
