<svg width="117" height="117" viewBox="0 0 117 117" fill="none" xmlns="http://www.w3.org/2000/svg">
<path d="M33.1692 26.414L99.633 52.6295L43.6978 97.0811L33.1692 26.414Z" fill="#FF4343"/>
<path d="M58.335 67.3038C57.525 67.3038 56.76 67.1463 56.04 66.8312C55.32 66.5162 54.6938 66.07 54.1613 65.4925C53.6363 64.915 53.2575 64.2325 53.025 63.445L55.6463 62.7362C55.8338 63.3812 56.175 63.88 56.67 64.2325C57.1725 64.5775 57.7238 64.7462 58.3237 64.7387C58.8563 64.7387 59.3325 64.615 59.7525 64.3675C60.1725 64.12 60.5025 63.7862 60.7425 63.3662C60.9825 62.9387 61.1025 62.4625 61.1025 61.9375C61.1025 61.135 60.8438 60.4637 60.3263 59.9237C59.8088 59.3837 59.1413 59.1137 58.3237 59.1137C58.0763 59.1137 57.8325 59.1475 57.5925 59.215C57.36 59.2825 57.135 59.3762 56.9175 59.4962L55.68 57.3587L61.125 52.7012L61.3613 53.3537H53.655V50.8H63.5888V53.365L59.2125 57.5725L59.19 56.7737C60.1725 56.8412 61.0088 57.115 61.6988 57.595C62.3963 58.075 62.9288 58.6937 63.2963 59.4512C63.6713 60.2087 63.8588 61.0375 63.8588 61.9375C63.8588 62.9575 63.6075 63.8725 63.105 64.6825C62.61 65.4925 61.9425 66.1337 61.1025 66.6062C60.27 67.0713 59.3475 67.3038 58.335 67.3038Z" fill="white"/>
</svg>
