<svg width="223" height="232" viewBox="0 0 223 232" fill="none" xmlns="http://www.w3.org/2000/svg">
<g filter="url(#filter0_d_285_2482)">
<path d="M69.2566 162.43L77.1745 69.2347L153.925 122.689L69.2566 162.43Z" fill="white"/>
<path d="M151.932 122.52L70.3996 160.789L78.0243 71.0452L151.932 122.52Z" stroke="#FF4343" stroke-width="2"/>
</g>
<path d="M99.9294 130.899L98.591 128.048L103.456 116.667C103.836 115.782 104.032 115.022 104.043 114.387C104.054 113.752 103.947 113.194 103.722 112.715C103.416 112.063 103.004 111.549 102.486 111.174C101.963 110.79 101.382 110.565 100.744 110.5C100.115 110.431 99.4793 110.547 98.8365 110.849C98.1576 111.167 97.63 111.608 97.2536 112.172C96.8821 112.722 96.6726 113.322 96.6251 113.974C96.5776 114.626 96.7032 115.247 97.0017 115.836L93.6342 117.416C93.0223 116.113 92.7788 114.841 92.9035 113.6C93.0373 112.355 93.4903 111.226 94.2625 110.212C95.0438 109.193 96.1089 108.368 97.4577 107.734C98.7069 107.148 99.9611 106.902 101.22 106.996C102.475 107.081 103.619 107.482 104.653 108.201C105.682 108.911 106.496 109.905 107.095 111.181C107.533 112.113 107.774 112.956 107.818 113.709C107.862 114.461 107.756 115.224 107.499 115.996C107.252 116.763 106.91 117.647 106.474 118.648L103.007 126.688L102.325 126.013L111.939 121.501L113.386 124.583L99.9294 130.899Z" fill="#FF4343"/>
<defs>
<filter id="filter0_d_285_2482" x="0.255859" y="0.234863" width="222.668" height="231.195" filterUnits="userSpaceOnUse" color-interpolation-filters="sRGB">
<feFlood flood-opacity="0" result="BackgroundImageFix"/>
<feColorMatrix in="SourceAlpha" type="matrix" values="0 0 0 0 0 0 0 0 0 0 0 0 0 0 0 0 0 0 127 0" result="hardAlpha"/>
<feOffset/>
<feGaussianBlur stdDeviation="34.5"/>
<feComposite in2="hardAlpha" operator="out"/>
<feColorMatrix type="matrix" values="0 0 0 0 1 0 0 0 0 0.2625 0 0 0 0 0.2625 0 0 0 1 0"/>
<feBlend mode="normal" in2="BackgroundImageFix" result="effect1_dropShadow_285_2482"/>
<feBlend mode="normal" in="SourceGraphic" in2="effect1_dropShadow_285_2482" result="shape"/>
</filter>
</defs>
</svg>
