<svg width="87" height="70" viewBox="0 0 87 70" fill="none" xmlns="http://www.w3.org/2000/svg">
<rect x="29.9385" y="12.952" width="57.0424" height="57.0424" fill="#FF4343"/>
<path d="M40.5877 26.3509H16.75V32.7179H40.5902V35.7135L47.0479 29.3466L40.5902 22.9796V26.3509H40.5877Z" stroke="white" stroke-width="1.46367"/>
<g clip-path="url(#clip0_1270_1442)">
<path d="M4.13906 39.9293C1.58397 33.748 1.32504 26.8554 3.40914 20.4995C5.49325 14.1436 9.78264 8.7445 15.5007 5.27967C21.2188 1.81484 27.9877 0.513302 34.5818 1.61069C41.1759 2.70808 47.1595 6.13186 51.4492 11.2622C55.7388 16.3925 58.0511 22.8902 57.9673 29.579C57.8835 36.2678 55.4093 42.7055 50.9924 47.7266C46.5756 52.7477 40.5082 56.0204 33.8886 56.952C27.2691 57.8836 20.535 56.4127 14.9054 52.8056" stroke="white" stroke-width="1.46367" stroke-miterlimit="10"/>
<path d="M21.2777 52.2213L15.5024 53.2089L16.4918 58.9857L13.6213 56.9542L12.6318 51.1774L18.4047 50.1873L21.2777 52.2213Z" fill="white"/>
</g>
<defs>
<clipPath id="clip0_1270_1442">
<rect width="58.4003" height="58.9858" fill="white" transform="translate(0.796875)"/>
</clipPath>
</defs>
</svg>
