<svg width="137" height="111" viewBox="0 0 137 111" fill="none" xmlns="http://www.w3.org/2000/svg">
<path d="M45.7734 19.3679H136.075V92C136.075 102.493 127.568 111 117.075 111H45.7734V19.3679Z" fill="#FF4343"/>
<path d="M20.7576 58.0563V69.1772H31.4337V58.0563H36.4578L25.7816 47.4053L15.1055 58.0563H20.7576Z" stroke="#202020" stroke-width="3"/>
<path d="M40.5388 43.8024V69.1768H51.215V43.8024H56.239L45.5629 33.1514L34.8867 43.8024H40.5388Z" stroke="#202020" stroke-width="3"/>
<path d="M60.324 29.8622V69.1769H71.0001V29.8622H76.0242L65.348 19.2112L54.6719 29.8622H60.324Z" stroke="#202020" stroke-width="3"/>
<path d="M36.7177 3.60337L36.3303 2.15425V2.15425L36.7177 3.60337ZM94.0667 36.6358L92.6181 37.0249L94.0667 36.6358ZM60.9562 93.8497L60.5689 92.4006L60.9562 93.8497ZM15.8495 80.4014C15.0211 80.4066 14.3538 81.0824 14.359 81.9108L14.4437 95.4105C14.4489 96.2389 15.1247 96.9063 15.9531 96.9011C16.7815 96.8959 17.4488 96.2201 17.4436 95.3917L17.3683 83.3919L29.3681 83.3166C30.1965 83.3114 30.8639 82.6357 30.8587 81.8073C30.8535 80.9788 30.1777 80.3115 29.3493 80.3167L15.8495 80.4014ZM5.05582 60.4282C-1.42167 36.3109 12.9235 11.5166 37.105 5.05248L36.3303 2.15425C10.5524 9.04514 -4.75062 35.482 2.1585 61.2063L5.05582 60.4282ZM37.105 5.05248C61.2879 -1.41202 86.1402 12.9063 92.6181 37.0249L95.5154 36.2467C88.6066 10.5237 62.1069 -4.73629 36.3303 2.15425L37.105 5.05248ZM92.6181 37.0249C99.0956 61.1422 84.7504 85.9364 60.5689 92.4006L61.3436 95.2988C87.1215 88.4079 102.425 61.9711 95.5154 36.2467L92.6181 37.0249ZM60.5689 92.4006C44.4305 96.7146 27.9911 91.7741 16.9129 80.8341L14.805 82.9687C26.6103 94.6267 44.1366 99.8986 61.3436 95.2988L60.5689 92.4006Z" fill="#202020"/>
</svg>
