<svg width="78" height="71" viewBox="0 0 78 71" fill="none" xmlns="http://www.w3.org/2000/svg">
<circle cx="48.0456" cy="40.507" r="29.5358" fill="#FF4343"/>
<path d="M51.103 37.2584C55.9231 35.792 59.2761 31.2895 59.2761 26.0513C59.3819 19.5583 54.0374 14.3225 47.5408 14.3225C47.435 14.3225 47.3315 14.3225 47.2257 14.3225C47.435 13.4835 47.5408 12.647 47.5408 11.7046C47.5408 5.94482 42.8241 1.23071 37.0611 1.23071C32.4502 1.23071 28.5729 4.16351 27.2115 8.24779C25.535 7.0963 23.5435 6.46647 21.3427 6.46647C15.5797 6.46647 10.8653 11.1806 10.8653 16.9404V17.0438C5.7301 17.6736 1.64355 22.0728 1.64355 27.4143C1.64355 33.1741 6.36028 37.8858 12.1233 37.8858H33.0803" stroke="white" stroke-width="1.5" stroke-miterlimit="10"/>
<path d="M42.7245 46.1673C47.6648 46.1673 51.6696 42.1646 51.6696 37.2271C51.6696 32.2895 47.6648 28.2869 42.7245 28.2869C37.7842 28.2869 33.7793 32.2895 33.7793 37.2271C33.7793 42.1646 37.7842 46.1673 42.7245 46.1673Z" stroke="white" stroke-width="1.5" stroke-miterlimit="10"/>
<path d="M49.952 42.6461L48.1475 44.4496L58.966 55.2621L60.7705 53.4586L49.952 42.6461Z" stroke="white" stroke-width="1.5" stroke-miterlimit="10"/>
</svg>
