<svg width="663" height="862" viewBox="0 0 663 862" fill="none" xmlns="http://www.w3.org/2000/svg">
<path fill-rule="evenodd" clip-rule="evenodd" d="M331.239 862L662.432 602.058L-0.000221416 602.058L331.239 862ZM541.686 390.751L541.686 570.194L120.748 570.194L120.748 390.751L541.686 390.751ZM541.684 212.985L541.684 142.549L120.746 142.549L120.746 212.985L541.684 212.985ZM541.686 67.082L541.686 110.685L120.748 110.685L120.748 67.082L541.686 67.082ZM541.684 35.2179L541.684 -2.1674e-05L120.746 -5.84736e-05L120.746 35.2178L541.684 35.2179ZM541.684 243.172L541.684 360.565L120.746 360.565L120.746 243.172L541.684 243.172Z" fill="url(#paint0_linear_1070_4572)"/>
<defs>
<linearGradient id="paint0_linear_1070_4572" x1="331.216" y1="862" x2="331.216" y2="-2.89558e-05" gradientUnits="userSpaceOnUse">
<stop stop-color="#FF4343"/>
<stop offset="0.135" stop-color="#FF4343"/>
<stop offset="1" stop-color="#FF4343" stop-opacity="0"/>
</linearGradient>
</defs>
</svg>
