<svg width="79" height="71" viewBox="0 0 79 71" fill="none" xmlns="http://www.w3.org/2000/svg">
<circle cx="48.327" cy="40.5828" r="29.7664" fill="#FF4343"/>
<path d="M51.4023 37.3091C56.2601 35.8312 59.6392 31.2935 59.6392 26.0144C59.7459 19.4707 54.3597 14.194 47.8123 14.194C47.7057 14.194 47.6014 14.194 47.4948 14.194C47.7056 13.3485 47.8123 12.5054 47.8123 11.5557C47.8123 5.75092 43.0588 1 37.2507 1C32.6038 1 28.6963 3.9557 27.3243 8.07187C25.6347 6.9114 23.6276 6.27665 21.4096 6.27665C15.6016 6.27665 10.8504 11.0276 10.8504 16.8324V16.9365C5.6751 17.5713 1.55664 22.0048 1.55664 27.3881C1.55664 33.1929 6.3102 37.9414 12.1182 37.9414H33.2389" stroke="white" stroke-width="1.4751" stroke-miterlimit="10"/>
<path d="M42.9623 46.2873C47.9412 46.2873 51.9773 42.2534 51.9773 37.2772C51.9773 32.3011 47.9412 28.2672 42.9623 28.2672C37.9834 28.2672 33.9473 32.3011 33.9473 37.2772C33.9473 42.2534 37.9834 46.2873 42.9623 46.2873Z" stroke="white" stroke-width="1.4751" stroke-miterlimit="10"/>
<path d="M50.2463 42.7387L48.4277 44.5563L59.3308 55.4533L61.1494 53.6357L50.2463 42.7387Z" stroke="white" stroke-width="1.4751" stroke-miterlimit="10"/>
</svg>
