<svg width="120" height="244" viewBox="0 0 120 244" fill="none" xmlns="http://www.w3.org/2000/svg">
<path d="M57.0371 196.589L57.0371 60.5894" stroke="#FF4343" stroke-width="2" stroke-dasharray="6 6"/>
<g filter="url(#filter0_d_661_7751)">
<path d="M83.7567 40.1309L56.4939 79.9664L35.6267 36.4384L83.7567 40.1309Z" fill="white"/>
<path d="M36.4785 37.0214L82.8259 40.5771L56.5729 78.9372L36.4785 37.0214Z" stroke="#FF4343" stroke-width="1.0322"/>
</g>
<path d="M59.7972 57.8203V55.9778H54.8581V54.236L58.427 46.6725H60.5559L56.9871 54.236H59.7972V51.3329H61.6862V54.236H62.7313V55.9778H61.6862V57.8203H59.7972Z" fill="#FF4343"/>
<path d="M45.6802 181.535L86.4727 207.344L43.7254 229.767L45.6802 181.535Z" fill="#FF4343"/>
<path d="M54.8581 211.842V210.216L59.6269 205.966C59.9985 205.636 60.2566 205.324 60.4011 205.029C60.5456 204.735 60.6178 204.451 60.6178 204.178C60.6178 203.806 60.5378 203.476 60.3778 203.187C60.2179 202.893 59.9959 202.66 59.7121 202.49C59.4334 202.32 59.1108 202.235 58.7444 202.235C58.3573 202.235 58.0141 202.325 57.7148 202.506C57.4206 202.681 57.1909 202.916 57.0258 203.21C56.8606 203.504 56.7832 203.822 56.7935 204.162H54.8736C54.8736 203.419 55.0388 202.771 55.3691 202.219C55.7045 201.667 56.1639 201.239 56.7471 200.934C57.3354 200.63 58.0141 200.477 58.7831 200.477C59.4953 200.477 60.1353 200.637 60.703 200.957C61.2707 201.272 61.7171 201.711 62.0423 202.273C62.3674 202.831 62.53 203.473 62.53 204.201C62.53 204.733 62.4577 205.179 62.3132 205.54C62.1687 205.902 61.952 206.234 61.6629 206.539C61.3791 206.843 61.0256 207.182 60.6023 207.553L57.2193 210.549L57.049 210.085H62.53V211.842H54.8581Z" fill="white"/>
<defs>
<filter id="filter0_d_661_7751" x="0.0159416" y="0.827465" width="119.351" height="114.75" filterUnits="userSpaceOnUse" color-interpolation-filters="sRGB">
<feFlood flood-opacity="0" result="BackgroundImageFix"/>
<feColorMatrix in="SourceAlpha" type="matrix" values="0 0 0 0 0 0 0 0 0 0 0 0 0 0 0 0 0 0 127 0" result="hardAlpha"/>
<feOffset/>
<feGaussianBlur stdDeviation="17.8055"/>
<feComposite in2="hardAlpha" operator="out"/>
<feColorMatrix type="matrix" values="0 0 0 0 1 0 0 0 0 0.2625 0 0 0 0 0.2625 0 0 0 1 0"/>
<feBlend mode="normal" in2="BackgroundImageFix" result="effect1_dropShadow_661_7751"/>
<feBlend mode="normal" in="SourceGraphic" in2="effect1_dropShadow_661_7751" result="shape"/>
</filter>
</defs>
</svg>
