<svg width="224" height="232" viewBox="0 0 224 232" fill="none" xmlns="http://www.w3.org/2000/svg">
<g filter="url(#filter0_d_1076_5628)">
<path d="M69.2095 69.8702L154.957 107.224L79.7339 162.807L69.2095 69.8702Z" fill="white"/>
<path d="M80.5327 160.973L70.3981 71.4787L152.97 107.449L80.5327 160.973Z" stroke="#FF4343" stroke-width="2"/>
</g>
<path d="M102.921 124.348C101.87 124.597 100.829 124.627 99.7982 124.44C98.7673 124.253 97.8176 123.866 96.9493 123.28C96.0907 122.692 95.3896 121.923 94.846 120.973L98.0292 119.248C98.4706 120.027 99.0666 120.569 99.8172 120.875C100.575 121.168 101.342 121.218 102.118 121.023C102.809 120.86 103.389 120.553 103.858 120.103C104.327 119.653 104.653 119.118 104.835 118.5C105.015 117.871 105.024 117.216 104.863 116.535C104.616 115.494 104.074 114.703 103.237 114.161C102.4 113.619 101.451 113.474 100.39 113.725C100.069 113.801 99.7631 113.92 99.4725 114.081C99.1916 114.24 98.9284 114.431 98.6831 114.654L96.4208 112.261L102.054 104.545L102.561 105.319L92.5629 107.686L91.7783 104.373L104.667 101.321L105.455 104.649L101.07 111.453L100.795 110.423C102.091 110.209 103.26 110.307 104.302 110.718C105.355 111.126 106.236 111.765 106.945 112.635C107.665 113.503 108.163 114.521 108.439 115.688C108.752 117.012 108.708 118.276 108.305 119.481C107.911 120.684 107.242 121.722 106.297 122.593C105.36 123.452 104.235 124.037 102.921 124.348Z" fill="#FF4343"/>
<defs>
<filter id="filter0_d_1076_5628" x="0.208984" y="0.870117" width="223.748" height="230.937" filterUnits="userSpaceOnUse" color-interpolation-filters="sRGB">
<feFlood flood-opacity="0" result="BackgroundImageFix"/>
<feColorMatrix in="SourceAlpha" type="matrix" values="0 0 0 0 0 0 0 0 0 0 0 0 0 0 0 0 0 0 127 0" result="hardAlpha"/>
<feOffset/>
<feGaussianBlur stdDeviation="34.5"/>
<feComposite in2="hardAlpha" operator="out"/>
<feColorMatrix type="matrix" values="0 0 0 0 1 0 0 0 0 0.2625 0 0 0 0 0.2625 0 0 0 1 0"/>
<feBlend mode="normal" in2="BackgroundImageFix" result="effect1_dropShadow_1076_5628"/>
<feBlend mode="normal" in="SourceGraphic" in2="effect1_dropShadow_1076_5628" result="shape"/>
</filter>
</defs>
</svg>
