<svg width="169" height="40" viewBox="0 0 169 40" fill="none" xmlns="http://www.w3.org/2000/svg">
<path d="M70.7079 17.0735V4.23171H72.8602V10.1885L77.9602 4.23171H80.6021L75.0735 10.5251L80.9691 17.0735H78.2458L72.8296 11.0759V17.0735H70.7079ZM90.608 7.43451V17.0735H88.568V10.7801L83.9781 17.0735H82.2645V7.43451H84.3045V13.5545L88.9047 7.43451H90.608ZM97.1157 17.3591C96.2952 17.3666 95.4879 17.1516 94.7799 16.7369C94.1282 16.3293 93.6049 15.7459 93.2703 15.0539C92.8849 14.2481 92.6596 13.3751 92.6072 12.4835C92.6072 11.9837 92.6072 11.4635 92.6072 10.7903C92.6382 10.1782 92.7065 9.56841 92.8114 8.9645C92.8898 8.44308 93.0301 7.93288 93.2295 7.44472C93.6013 6.62857 94.1818 5.92491 94.9124 5.40473C95.3036 5.1318 95.7333 4.91867 96.1874 4.77234C96.6623 4.61602 97.1507 4.50333 97.6461 4.43572C98.1459 4.35412 98.6662 4.27255 99.1966 4.21135C99.727 4.15015 100.267 4.05835 100.788 3.95635L100.982 5.86374C100.602 5.95244 100.217 6.01716 99.8288 6.05754L98.4722 6.20036C98.0255 6.24926 97.5827 6.32761 97.1464 6.43493C96.7561 6.5148 96.383 6.66329 96.0447 6.87352C95.5992 7.13595 95.2436 7.52708 95.0247 7.99549C94.8009 8.4845 94.6663 9.00955 94.627 9.54591C94.9523 9.02948 95.4297 8.62674 95.9936 8.39331C96.5273 8.17239 97.0992 8.05802 97.6768 8.05669C98.4516 8.03288 99.2155 8.24258 99.8697 8.65852C100.489 9.06467 100.98 9.63748 101.287 10.3109C101.63 11.0304 101.801 11.8194 101.787 12.6161C101.81 13.4863 101.606 14.3473 101.196 15.1151C100.811 15.8162 100.234 16.393 99.533 16.7777C98.792 17.1831 97.9603 17.3936 97.1157 17.3897V17.3591ZM97.2176 15.3191C97.5452 15.3426 97.8738 15.2903 98.1781 15.1665C98.4823 15.0427 98.7541 14.8507 98.9722 14.6051C99.3908 14.0564 99.6003 13.3767 99.5636 12.6875C99.6035 11.9915 99.3858 11.3052 98.9518 10.7597C98.4873 10.3086 97.8651 10.0562 97.2176 10.0562C96.5701 10.0562 95.9481 10.3086 95.4836 10.7597C95.0575 11.3089 94.8439 11.9934 94.882 12.6875C94.8389 13.3901 95.0567 14.0839 95.4938 14.6357C95.7091 14.8778 95.9752 15.0693 96.2733 15.1963C96.5713 15.3233 96.8938 15.3826 97.2176 15.3701V15.3191ZM108.162 17.3591C107.265 17.3753 106.379 17.1573 105.592 16.7266C104.866 16.3084 104.269 15.6978 103.868 14.9621C103.449 14.1676 103.238 13.2797 103.256 12.3815C103.229 11.4347 103.435 10.4956 103.858 9.64788C104.236 8.89591 104.82 8.26646 105.541 7.83232C106.3 7.39376 107.164 7.17151 108.04 7.18972C108.938 7.16102 109.824 7.4065 110.58 7.89352C111.294 8.36925 111.84 9.0581 112.14 9.8621C112.493 10.8235 112.625 11.8517 112.528 12.8711H110.396V12.0857C110.448 11.2827 110.256 10.4828 109.845 9.79069C109.636 9.54463 109.372 9.35159 109.074 9.22747C108.776 9.10335 108.453 9.05167 108.132 9.07669C107.762 9.04596 107.391 9.10402 107.048 9.24596C106.706 9.3879 106.402 9.60967 106.163 9.89273C105.689 10.5908 105.463 11.4275 105.52 12.2693C105.47 13.0784 105.697 13.8807 106.163 14.5439C106.392 14.8134 106.682 15.0256 107.007 15.1637C107.333 15.3018 107.687 15.362 108.04 15.3395C108.519 15.3535 108.992 15.2335 109.407 14.9927C109.799 14.75 110.108 14.3944 110.294 13.9727L112.416 14.6051C112.078 15.4514 111.478 16.1667 110.702 16.6451C109.942 17.1247 109.061 17.376 108.162 17.3692V17.3591ZM104.847 12.8711V11.2493H111.477V12.8711H104.847ZM119.127 17.3591C118.287 17.3904 117.459 17.1547 116.761 16.6859C116.12 16.2281 115.621 15.5988 115.322 14.8703C114.995 14.0428 114.832 13.1592 114.843 12.2693C114.83 11.3792 114.993 10.4952 115.322 9.6683C115.615 8.9473 116.102 8.32205 116.73 7.86289C117.41 7.39737 118.222 7.16152 119.046 7.18972C119.881 7.16739 120.704 7.40236 121.402 7.86289C122.08 8.30725 122.621 8.93265 122.962 9.6683C123.329 10.4865 123.518 11.3728 123.518 12.2693C123.518 13.1657 123.329 14.0521 122.962 14.8703C122.629 15.6049 122.1 16.2332 121.432 16.6859C120.756 17.1361 119.96 17.3741 119.147 17.3692L119.127 17.3591ZM114.476 21.3677V7.45493H116.445V14.2175H116.71V21.3575L114.476 21.3677ZM118.791 15.4313C119.287 15.4491 119.774 15.302 120.178 15.0131C120.543 14.7166 120.818 14.3246 120.973 13.8809C121.163 13.3651 121.256 12.8188 121.249 12.2693C121.256 11.7297 121.163 11.1935 120.973 10.6883C120.82 10.2327 120.532 9.83437 120.147 9.54591C119.732 9.24746 119.23 9.09664 118.719 9.11753C118.242 9.09741 117.771 9.23745 117.383 9.51534C117.021 9.80001 116.755 10.1876 116.618 10.6271C116.291 11.701 116.291 12.8478 116.618 13.9217C116.75 14.3852 117.039 14.7886 117.435 15.0637C117.831 15.3388 118.31 15.4687 118.791 15.4313ZM80.9998 34.8928H78.8273V25.8352L72.8704 34.8928H70.6875V22.0511H72.8704V31.0984L78.8273 22.0511H80.9998V34.8928ZM87.6706 35.158C86.7783 35.182 85.8975 34.952 85.1308 34.4949C84.4345 34.0522 83.8762 33.4233 83.5191 32.6794C83.1436 31.8641 82.9521 30.9761 82.9581 30.0784C82.9491 29.1717 83.1481 28.275 83.5395 27.4571C83.9056 26.7124 84.475 26.0864 85.1818 25.6517C85.9416 25.1957 86.8155 24.9657 87.7012 24.9886C88.6926 24.9561 89.6673 25.2499 90.4755 25.825C91.2331 26.3623 91.7639 27.1622 91.9647 28.069L89.8226 28.6504C89.6856 28.17 89.3957 27.7474 88.9966 27.4469C88.6172 27.1545 88.1495 26.9998 87.6706 27.0082C87.1809 26.9904 86.6982 27.1298 86.2935 27.406C85.9196 27.6789 85.6384 28.0598 85.4876 28.4974C85.3081 29.0047 85.2217 29.5404 85.2326 30.0784C85.1962 30.8625 85.4107 31.6378 85.8447 32.2918C86.2299 32.737 86.7627 33.0283 87.3453 33.1126C87.9279 33.1969 88.5214 33.0685 89.017 32.7508C89.375 32.4562 89.6376 32.0623 89.7718 31.6186L91.9647 32.1082C91.7169 33.0184 91.1664 33.817 90.4041 34.3725C89.6042 34.9129 88.656 35.1909 87.691 35.1682L87.6706 35.158ZM93.7293 34.8928V25.2334H102.093V34.8621H99.9513V27.2734H95.8714V34.8928H93.7293ZM104.592 34.8928V25.2334H106.744V28.4362H107.826H108.723C109.007 28.4427 109.29 28.4699 109.57 28.5178C110.064 28.6182 110.535 28.8122 110.957 29.089C111.332 29.348 111.634 29.6993 111.834 30.109C112.049 30.5898 112.154 31.1126 112.14 31.639C112.173 32.3767 111.937 33.1013 111.477 33.679C110.986 34.2063 110.339 34.5635 109.631 34.699C109.345 34.7548 109.055 34.7888 108.764 34.801H107.846L104.592 34.8928ZM106.734 33.2097H108.03H108.458C108.613 33.1992 108.768 33.1719 108.917 33.1282C109.199 33.0462 109.448 32.8787 109.631 32.6488C109.842 32.382 109.953 32.0503 109.947 31.7104C109.957 31.3637 109.845 31.0247 109.631 30.7516C109.434 30.5117 109.166 30.3403 108.866 30.2621C108.722 30.2277 108.575 30.2037 108.427 30.1906H106.734V33.2097ZM113.14 34.8928V25.2334H115.282V34.8621L113.14 34.8928ZM120.198 34.8928V27.1714H116.985V25.2334H125.625V27.1408H122.401V34.8621L120.198 34.8928ZM129.725 35.158C129.114 35.1752 128.508 35.0421 127.96 34.7704C127.511 34.5353 127.134 34.1828 126.869 33.7504C126.624 33.3036 126.497 32.8014 126.502 32.2918C126.494 31.8663 126.57 31.4433 126.726 31.0474C126.877 30.6542 127.122 30.304 127.44 30.0274C127.813 29.7302 128.239 29.5055 128.695 29.3645C129.139 29.2186 129.592 29.1026 130.051 29.0176C130.572 28.9258 131.133 28.8238 131.745 28.7422L133.662 28.4566L132.897 28.8952C132.944 28.3658 132.783 27.8389 132.448 27.4264C132.237 27.2478 131.991 27.1142 131.727 27.0335C131.462 26.9528 131.183 26.9268 130.908 26.9572C130.472 26.9555 130.043 27.0569 129.653 27.253C129.452 27.3583 129.273 27.5027 129.128 27.6778C128.982 27.853 128.873 28.0553 128.807 28.273L126.848 27.6508C127.062 26.8616 127.541 26.17 128.205 25.6924C129.004 25.1626 129.951 24.9017 130.908 24.9478C131.683 24.934 132.453 25.0763 133.172 25.366C133.806 25.6348 134.321 26.124 134.621 26.743C134.787 27.0613 134.894 27.4068 134.937 27.763C134.937 28.12 134.937 28.4974 134.937 28.9156V34.8316H133.06V32.7916L133.366 33.1282C133.002 33.7646 132.478 34.2953 131.847 34.6684C131.185 35.0093 130.449 35.181 129.705 35.1682L129.725 35.158ZM130.153 33.4444C130.586 33.458 131.015 33.3707 131.408 33.1894C131.719 33.0353 131.997 32.8203 132.224 32.557C132.403 32.3482 132.544 32.11 132.642 31.8532C132.759 31.5538 132.821 31.236 132.826 30.9147C132.826 30.5578 132.826 30.2722 132.826 30.0478L133.489 30.2416L131.816 30.5171C131.36 30.5919 130.962 30.6632 130.622 30.7312C130.296 30.8026 130 30.874 129.745 30.9556C129.52 31.0297 129.307 31.1363 129.113 31.2718C128.95 31.3782 128.811 31.517 128.705 31.6797C128.611 31.8442 128.565 32.0314 128.572 32.2204C128.567 32.445 128.632 32.6656 128.756 32.8528C128.879 33.0439 129.057 33.1933 129.266 33.2812C129.551 33.4099 129.862 33.4693 130.174 33.4547L130.153 33.4444ZM137.293 34.8928V25.2334H139.446V29.0278H143.77V25.2334H145.912V34.8621H143.77V31.0474H139.446V34.8621L137.293 34.8928ZM156.755 25.2641V34.8928H154.715V28.5995L150.125 34.8928H148.411V25.2334H150.451V31.3534L155.062 25.2334L156.755 25.2641ZM163.63 35.158C162.735 35.1753 161.853 34.9572 161.069 34.5256C160.339 34.1146 159.738 33.5068 159.335 32.7712C158.916 31.9731 158.706 31.0818 158.723 30.1804C158.697 29.2337 158.904 28.295 159.325 27.4469C159.704 26.6949 160.287 26.0654 161.008 25.6312C161.767 25.1927 162.631 24.9704 163.507 24.9886C164.405 24.9599 165.291 25.2054 166.047 25.6924C166.763 26.1708 167.309 26.8635 167.607 27.6712C167.961 28.6288 168.094 29.6539 167.995 30.67H165.863V29.8847C165.917 29.0848 165.724 28.2875 165.312 27.5998C165.105 27.3518 164.841 27.1569 164.543 27.031C164.245 26.9051 163.922 26.8518 163.599 26.8756C163.231 26.8474 162.862 26.9066 162.522 27.0484C162.181 27.1903 161.879 27.4107 161.641 27.6917C161.165 28.3929 160.939 29.2333 160.998 30.0784C160.949 30.8842 161.176 31.6827 161.641 32.3428C161.867 32.6127 162.155 32.8254 162.479 32.9636C162.803 33.1018 163.155 33.1617 163.507 33.1384C163.986 33.1536 164.46 33.0334 164.874 32.7916C165.268 32.5515 165.578 32.1951 165.761 31.7716L167.883 32.4142C167.544 33.2598 166.944 33.9747 166.169 34.4542C165.414 34.9265 164.541 35.1741 163.65 35.1682L163.63 35.158ZM160.315 30.67V29.0482H166.945V30.67H160.315Z" fill="black"/>
<path d="M2.09104 4.1832H0V34.8952H2.09104V4.1832Z" fill="black"/>
<path d="M9.06656 4.18311H3.83398V34.8951H9.06656V4.18311Z" fill="black"/>
<path d="M19.5421 4.1832H11.168V34.8952H19.5421V4.1832Z" fill="black"/>
<path d="M43.6267 34.9053C52.1104 34.9053 58.9879 28.0279 58.9879 19.5442C58.9879 11.0604 52.1104 4.18311 43.6267 4.18311C35.143 4.18311 28.2656 11.0604 28.2656 19.5442C28.2656 28.0279 35.143 34.9053 43.6267 34.9053Z" fill="#FF4343"/>
<path d="M41.0456 19.6043L21.584 39.2187V0L41.0456 19.6043Z" fill="black"/>
<path fill-rule="evenodd" clip-rule="evenodd" d="M31.6103 29.1092C29.4668 26.3944 28.3008 23.0363 28.3008 19.5773C28.3008 16.1183 29.4668 12.7602 31.6103 10.0454L41.096 19.6028L31.6103 29.1092Z" fill="#F5F5F5"/>
</svg>
