<svg width="216" height="140" viewBox="0 0 216 140" fill="none" xmlns="http://www.w3.org/2000/svg">
<rect x="76.2969" y="0.123535" width="139.304" height="139.304" fill="#FF4343"/>
<path d="M8.60495 16.454V3.50928H25.1173H41.6297V16.454M8.60495 16.454H25.1173H41.6297M8.60495 16.454L2 113.645M2 113.645H25.1173H48.2346M2 113.645V125.162H48.2346M41.6297 16.454L44.3283 66.8094M48.2346 113.645V125.162M48.2346 113.645L44.3283 66.8094M48.2346 113.645H58.509M131.767 113.645V125.162H48.2346M131.767 113.645V66.8094V51.4534L109.881 66.8094V51.4534L87.9943 66.8094L88.1012 51.4534L66.2148 66.8094V51.4534L44.3283 66.8094M131.767 113.645H73.0643M58.509 113.645V85.2366H73.0643V113.645M58.509 113.645H73.0643M83.3387 113.645V85.2366H97.894V113.645H83.3387ZM108.168 113.645V85.2366H122.724V113.645H108.168Z" stroke="white" stroke-width="3.98012"/>
</svg>
